<svg width="166" height="31" viewBox="0 0 166 31" fill="none" xmlns="http://www.w3.org/2000/svg">
<path d="M49 1L52.3677 11.3647H63.2658L54.4491 17.7705L57.8168 28.1353L49 21.7295L40.1832 28.1353L43.5509 17.7705L34.7342 11.3647H45.6323L49 1Z" stroke="#FFA077" stroke-linejoin="round"/>
<path d="M15 1L18.3677 11.3647H29.2658L20.4491 17.7705L23.8168 28.1353L15 21.7295L6.18322 28.1353L9.55093 17.7705L0.734152 11.3647H11.6323L15 1Z" stroke="#FFA077" stroke-linejoin="round"/>
<path d="M117 1L120.368 11.3647H131.266L122.449 17.7705L125.817 28.1353L117 21.7295L108.183 28.1353L111.551 17.7705L102.734 11.3647H113.632L117 1Z" stroke="#FFA077" stroke-linejoin="round"/>
<path d="M151 1L154.368 11.3647H165.266L156.449 17.7705L159.817 28.1353L151 21.7295L142.183 28.1353L145.551 17.7705L136.734 11.3647H147.632L151 1Z" stroke="#FFA077" stroke-linejoin="round"/>
<path d="M83 1L86.3677 11.3647H97.2658L88.4491 17.7705L91.8168 28.1353L83 21.7295L74.1832 28.1353L77.5509 17.7705L68.7342 11.3647H79.6323L83 1Z" stroke="#FFA077" stroke-linejoin="round"/>
</svg>
